<svg xmlns="http://www.w3.org/2000/svg" viewBox="0 0 400 400" xml:space="preserve" id="Being-Creative--Streamline-Free-Illustrations">
  <desc>
    Being Creative Streamline Illustration: https://streamlinehq.com
  </desc>
  <g>
    <switch>
      <g>
        <path fill="#00df59" d="M244.02 104.99c-1.87 -0.97 -3.91 -1.62 -5.93 -2.21 -2.81 -0.82 -5.67 -1.5 -8.55 -2.05 -0.43 -0.08 -0.63 -0.44 -0.63 -0.86 0.01 -2.71 -0.1 -5.42 -0.32 -8.11 -0.17 -2.11 -0.39 -4.22 -0.83 -6.3 -0.26 -1.23 -0.58 -3.46 -1.65 -4.3 -2.27 -1.77 -7.23 3.93 -8.63 5.32 -2.11 2.09 -4.12 4.3 -6.01 6.59 -0.45 0.54 -0.85 0.7 -1.15 0.62 -0.1 0 -0.2 -0.01 -0.3 -0.04a72.979 72.979 0 0 0 -9.54 -2.46c-2.25 -0.42 -4.41 -0.47 -6.68 -0.55 -0.02 0 -0.1 0.01 -0.2 0.03 0.18 0.42 0.34 1.07 0.47 1.32 2.41 4.66 6.51 8.75 10.19 12.44 0.61 0.61 -0.22 2.05 -0.71 2.43 -2.08 1.6 -13.42 10.18 -10.93 12.8 1.22 1.29 4.67 0.81 6.16 0.62 2.65 -0.34 5.26 -1.08 7.79 -1.91 3.15 -1.04 6.26 -2.26 9.25 -3.71 0.35 -0.17 0.8 -0.26 1.06 0.12 1.63 2.36 3.32 4.68 5.05 6.97 1.37 1.8 2.76 3.58 4.24 5.3 1.16 1.35 2.59 2.43 3.76 3.72 0.03 -0.56 0.14 -1.24 0.12 -1.6 -0.07 -2.15 -0.36 -4.3 -0.68 -6.43 -0.41 -2.76 -0.91 -5.51 -1.49 -8.24 -0.2 -0.93 0.46 -2.27 1.44 -2.5 2.24 -0.53 4.47 -1.15 6.68 -1.81 1.87 -0.56 3.72 -1.15 5.54 -1.84 1.4 -0.53 2.93 -1.7 4.34 -2.06 -0.55 -0.25 -1.31 -1.02 -1.86 -1.3m-141.35 -8.12c0.03 0 0.07 0.01 0.11 0.02 0.69 -1.02 -0.88 0.11 -0.11 -0.02" stroke-width="1"></path>
        <path fill="#00df59" d="M153.28 97c-0.36 -0.93 -0.92 -1.81 -1.46 -2.64 -1.14 -1.76 -2.46 -3.4 -3.82 -5a99.053 99.053 0 0 0 -5.73 -6.22 0.608 0.608 0 0 1 -0.15 -0.24c-0.01 -0.01 -0.01 -0.03 -0.02 -0.05 -0.16 -0.43 0.01 -1.03 0.34 -1.54 1.23 -2.88 2.31 -5.86 3.15 -8.87 0.48 -1.72 1.67 -4.91 1.06 -6.7 -0.37 -1.08 -0.93 -0.92 -2.03 -0.61 -5.02 1.44 -9.79 5.8 -13.74 9.09 -0.34 0.28 -1.04 0.61 -1.36 0.1a77.313 77.313 0 0 0 -4.68 -6.56c-1.27 -1.6 -2.6 -3.2 -4.12 -4.56 -0.68 -0.6 -2.63 -2.47 -3.7 -2.04 -1.19 0.47 -0.9 4.03 -0.85 5.08 0.12 2.78 0.66 5.53 1.31 8.23 0.75 3.12 1.68 6.23 2.81 9.24 0.31 0.82 -0.46 1.99 -1.14 2.37 -2.58 1.45 -5.12 2.98 -7.63 4.55 -2.93 1.84 -6.24 3.72 -8.65 6.27 0.2 0.06 0.47 0.19 0.6 0.23 0.73 0.21 1.56 0.23 2.31 0.27 2.12 0.13 4.25 0.04 6.37 -0.07q4.32 -0.24 8.61 -0.75c0.37 -0.04 0.81 0.05 0.88 0.51 0.34 2.39 0.77 4.76 1.26 7.13 0.68 3.31 1.28 7.23 3.04 10.17 0.67 1.11 0.93 1.46 1.75 0.43 1.34 -1.68 2.15 -3.89 2.93 -5.86 1.12 -2.81 2.09 -5.7 2.92 -8.62 0.17 -0.62 0.91 -1.5 1.63 -1.43 2.59 0.24 5.2 0.37 7.81 0.41 2.17 0.03 4.36 0.02 6.52 -0.23 1.08 -0.12 3.54 -0.18 4.32 -1.08 -0.37 0.43 -0.29 -0.35 -0.54 -1.01" stroke-width="1"></path>
        <path fill="#ff8400" d="M102.11 182.56c-1.2 -2.48 -1.23 -5.39 -0.28 -7.95 0.51 -1.37 1.35 -2.52 2.18 -3.7 0.56 -0.79 1.36 -1.83 1.76 -2.75 0.56 -1.31 0.59 -1.03 -0.36 -1.42 -1.21 -0.49 -4.13 0.85 -5.3 1.22 -1.31 0.42 -2.56 0.81 -3.94 0.81 -3.05 0.01 -5.48 -1.48 -7.44 -3.71 -1.22 -1.39 -2.42 -2.85 -3.89 -3.99 -1.5 -1.17 -2.19 -1.51 -2.87 0.43 -1.05 3 -0.89 6.35 -2.24 9.24 -1.16 2.46 -3.08 4.33 -5.56 5.44 -1.69 0.69 -3.4 1.4 -4.96 2.35 -0.21 0.13 -1.18 0.64 -1.52 0.97 0.42 -0.13 1.84 0.74 1.8 0.72 2.5 1.21 5.17 1.45 7.23 3.48 1.62 1.58 2.6 3.7 2.8 5.96 0.16 1.69 -1.43 7.04 0.32 7.94 2.41 1.24 6.56 -4.77 7.71 -6.33 1.47 -1.99 2.93 -3.69 5.26 -4.67 2.63 -1.11 5.05 -0.76 7.7 0.04 1.44 0.44 2.89 0.85 4.37 1.18 0.14 0.03 0.98 0.19 1.76 0.35 -0.67 -0.91 -1.59 -1.8 -2.03 -2.3 -0.95 -1.05 -1.86 -2 -2.5 -3.31m133.05 133.45c-6.75 0.05 -13.29 3.1 -19.35 5.77 -8.11 3.58 -16.24 5.3 -25.12 4.05 -4.85 -0.68 -9.42 -2.23 -13.92 -4.11 -4.59 -1.93 -9.22 -4.34 -14.12 -5.38 -2.16 -0.46 -4.51 -0.56 -6.55 0.42 -2.85 1.36 -3.79 4.47 -4.16 7.4 -0.67 5.42 0.13 10.99 1.76 16.17 6.11 17.99 24.08 30.1 42.88 30.52 15.5 0.34 32.12 -6.7 42.57 -18.16 5.41 -5.93 9.92 -14.03 9.98 -22.25 0.06 -8.1 -5.88 -14.49 -13.97 -14.43m4.54 24.18c-2.66 5.5 -6.72 10.59 -11.56 14.32 -20.05 15.47 -58.38 12.63 -69.02 -13.01 -2.12 -5.33 -2.96 -13.21 1.65 -17.56 5.99 -5.64 15.02 -0.03 21.97 3.56 5.96 2.48 12.01 3.87 18.76 3.43 5.43 -0.71 10.74 -2.67 15.85 -5.2 1.37 -0.68 2.85 -1.36 4.4 -1.98 0.16 -0.09 0.32 -0.17 0.47 -0.26 0.19 -0.11 0.38 -0.14 0.55 -0.13 5.71 -2.08 12.11 -2.88 16.72 1.8 4.06 4.12 2.44 10.42 0.21 15.03m21.53 -84.42c-0.42 -2.07 -2.72 -3.54 -4.39 -4.51 -3.47 -2.02 -7.41 -3.27 -11.27 -4.31 -11.48 -3.09 -23.49 -4.32 -35.33 -4.95 -13.21 -0.7 -26.52 -0.51 -39.69 0.77 -9.63 0.93 -19.43 2.31 -28.65 5.34 -2.59 0.85 -12.19 3.62 -10.63 7.91 0.07 0.2 0.16 0.38 0.26 0.57 0.71 1.32 2.09 2.33 3.42 3.12 0.39 0.23 0.78 0.45 1.15 0.65 3.24 1.76 6.81 2.93 10.36 3.89 4.66 1.27 9.42 2.22 14.21 2.95 5.63 0.86 11.32 1.41 16.97 1.81 12.87 0.91 25.84 0.9 38.71 -0.03 2.01 -0.15 4.02 -0.31 6.04 -0.5 7.13 -0.68 14.26 -1.7 21.21 -3.38 1.27 -0.31 2.54 -0.64 3.8 -0.99 3.45 -0.97 6.93 -2.11 10.06 -3.89 0.05 -0.03 0.11 -0.06 0.16 -0.09 1.13 -0.64 2.83 -1.61 3.44 -2.9 0.14 -0.29 0.22 -0.59 0.23 -0.9 0.01 -0.21 -0.02 -0.39 -0.06 -0.56m-11.02 -1.12c0.01 0.13 -0.01 0.26 -0.05 0.4 -0.71 4.45 -7.76 5.48 -11.21 6.18 -10.07 2.05 -20.49 2.66 -30.74 3.03 -11.71 0.43 -23.46 0.32 -35.15 -0.44 -8.22 -0.53 -16.65 -1.18 -24.66 -3.24 -2.51 -0.65 -8.46 -1.87 -7.23 -5.68 1.25 -3.85 7.51 -4.77 10.78 -5.45 8.71 -1.8 17.69 -2.45 26.55 -2.9 11.76 -0.59 23.57 -0.59 35.33 0 8.96 0.45 18.05 1.1 26.83 2.99 2.44 0.53 8.49 1.36 9.42 4.47 0.11 0.14 0.15 0.34 0.13 0.64" stroke-width="1"></path>
        <path fill="#f33b2f" d="M213.28 49.84c-1.94 -0.36 -3.95 0.07 -5.5 1.11 -0.27 0.38 -0.62 0.68 -0.96 0.78a5.882 5.882 0 0 0 -1.8 4.29c0.02 8.7 14.19 10.68 14.61 1.34 -0.16 -3.66 -2.68 -6.84 -6.35 -7.52m15.56 -29.69c-2.39 -0.41 -4.97 0.97 -5.04 3.59 -0.04 1.62 0.79 2.92 1.97 3.78 0.39 -0.07 0.73 0.14 0.88 0.54 2.67 1.31 6.28 0.67 6.48 -2.98 -0.13 -2.45 -1.84 -4.5 -4.29 -4.93m-39.32 7.34c-2.39 -0.41 -4.97 0.97 -5.04 3.59 -0.13 5.3 9.01 7.21 9.33 1.34 -0.13 -2.46 -1.84 -4.51 -4.29 -4.93m-4.14 35.84c-4.17 -0.75 -8.5 2.01 -8.52 6.48 -0.06 9.08 14.78 11.07 15.2 1.34 -0.17 -3.85 -2.83 -7.13 -6.68 -7.82" stroke-width="1"></path>
        <path fill="#56c8ee" d="M308.7 243.55c-1.2 -1.19 -2.51 -2.28 -3.82 -3.36 -1.65 -1.35 -3.34 -2.67 -5.06 -3.94 -0.5 -0.37 -0.39 -1.03 -0.22 -1.55 0.84 -2.57 5.53 -18.47 1.29 -18.8 -2.41 -0.19 -5.81 4.51 -7.14 6.05a78.376 78.376 0 0 0 -4.03 5.06c-0.23 0.32 -1.02 0.94 -1.45 0.58 -3.11 -2.59 -6.58 -5.52 -10.36 -7.02 -0.07 -0.03 -0.6 -0.15 -1.01 -0.25 0 0.04 0 0.08 0.01 0.1 0.41 1.73 0.6 3.47 1.13 5.2 0.66 2.16 1.44 4.3 2.34 6.37 0.25 0.58 -0.16 1.49 -0.73 2.04 -0.03 0.04 -0.07 0.09 -0.1 0.12 -1.59 1.58 -9.69 9.37 -7.44 11.08 1.92 1.46 6.26 0.97 8.51 0.93 1.78 -0.03 4.21 -0.15 5.64 -0.29 0.42 -0.04 0.75 0.05 0.88 0.51a70.88 70.88 0 0 0 2.14 6.36c0.61 1.57 1.26 3.19 2.21 4.59 0.26 0.38 0.64 1.12 1.1 1.3 0.02 0.01 0.02 0.02 0.04 0.02 0.02 -0.02 0.02 -0.03 0.05 -0.04 0.73 -0.6 1.04 -2.72 1.27 -3.59 0.39 -1.42 0.69 -2.87 0.98 -4.31 0.32 -1.61 0.61 -3.23 0.84 -4.86 0.1 -0.71 0.87 -1.93 1.75 -1.83 1.97 0.24 3.95 0.42 5.93 0.55 1.49 0.1 2.98 0.17 4.47 0.16 0.24 0 0.93 -0.13 1.62 -0.24 -0.29 -0.33 -0.55 -0.65 -0.84 -0.94" stroke-width="1"></path>
        <path fill="#f546c4" d="M287.81 73.48c-4.22 -1.63 -9.79 -2.11 -12.78 1.99 -1.9 2.61 -1.85 6.66 1.01 8.57 2.15 1.43 4.51 1.41 6.49 0.46 1.75 -0.83 3.21 -2.38 3.99 -4.29 0.44 -1.09 0.77 -2.26 1 -3.44 0.2 -1.03 0.32 -2.08 0.36 -3.11v-0.14a0.161 0.161 0 0 0 -0.07 -0.04m-38.01 -0.35c-1.9 2.61 -1.85 6.66 1.01 8.57 3.59 2.39 7.74 0.74 9.79 -2.51 0.26 -0.42 0.5 -0.86 0.69 -1.32 0.47 -1.16 0.82 -2.4 1.05 -3.67 0.08 -0.45 0.14 -0.9 0.2 -1.35 0.06 -0.56 0.11 -1.13 0.13 -1.69 -1.18 -0.46 -2.46 -0.83 -3.76 -1.04 -3.41 -0.53 -6.94 0.03 -9.11 3.01" stroke-width="1"></path>
        <path fill="#f4d300" d="M210.36 191.27c-0.02 0.56 0.14 0.24 0 0m-0.04 -7.5c0.01 1.52 0.03 3.04 0.04 4.56 0.01 0.86 0.11 1.79 0.02 2.64 -0.01 0.06 -0.01 0.11 -0.01 0.16 0.54 0.12 1.12 0.42 1.6 0.57 4.85 1.59 9.71 3.17 14.56 4.76 0.91 -2.43 1.76 -4.95 2.96 -7.2 0.72 -1.35 1.43 -1.37 2.9 -1.73 1.7 -0.42 3.35 -1.01 4.92 -1.8 3.84 -1.93 6.97 -4.86 9.23 -8.5 6.36 -11.05 2.41 -25.34 -8.5 -31.85 -9.21 -5.5 -21.64 -4.2 -29.11 3.67 -8.29 8.73 -7.85 22.56 0.09 31.34 1.26 1.41 1.28 1.6 1.3 3.38m77.1 106.49c-1.7 -4.29 -5.36 -5.6 -9.73 -3.91 -2.57 0.99 -4.9 2.61 -7.03 4.34 0.5 3.68 0.93 7.37 1.26 11.07 0.02 -0.01 0.03 -0.03 0.05 -0.05 2.6 -2.15 5.19 -4.3 7.79 -6.44 1.69 -1.4 1.76 1.41 0.66 2.33 -2.6 2.15 -5.19 4.3 -7.79 6.44 -0.18 0.15 -0.34 0.24 -0.48 0.3 0.44 5.7 0.64 11.41 0.49 17.11 4.47 -0.6 8.64 -2.44 11.62 -6.15 5.22 -6.54 6.21 -17.33 3.16 -25.04m-181.76 14.12c0.93 4.76 3 9.45 6.68 12.71 2.26 2.01 4.91 3.25 7.73 3.92 -0.14 -5.84 0.1 -11.6 0.5 -17.04 -2.46 -2.04 -4.92 -4.07 -7.38 -6.11 -1.09 -0.9 0.68 -3.72 1.67 -2.89l6.05 5c0.3 -3.29 0.66 -6.59 1.1 -9.89 -2.46 -1.91 -5.19 -3.52 -8.03 -4.23 -9.94 -2.5 -9.49 12.51 -8.32 18.53m162.66 -13.14c-0.06 -0.45 -0.12 -0.9 -0.19 -1.34a245.56 245.56 0 0 0 -6.22 -30.31c-2.93 3.61 -8.78 5.56 -12.6 6.78 -12.21 3.89 -25.32 5.2 -38.06 5.92 -14.26 0.81 -28.63 0.57 -42.84 -0.93 -10.18 -1.08 -20.76 -2.58 -30.32 -6.42 -2.43 -0.97 -5.84 -2.5 -7.82 -4.77 -2.48 9.11 -4.42 18.44 -5.75 27.84 -0.09 0.64 -0.18 1.28 -0.26 1.92l-0.24 1.87c-0.68 5.55 -1.15 11.13 -1.38 16.68 -0.17 4.17 -0.21 8.55 -0.02 13.01 0.02 0.55 0.05 1.09 0.08 1.64 0.03 0.51 0.06 1.02 0.1 1.53 1.19 17.75 6.33 36.09 21.68 45.85 24.48 15.57 58.2 17.19 85.37 8.53 11.83 -3.77 23.85 -10.02 31.37 -20.22 6.99 -9.48 8.66 -22.34 8.97 -34.15l0.03 -1.46c0.01 -0.52 0.02 -1.04 0.02 -1.55 0.01 -0.82 0.01 -1.63 0.01 -2.43 -0.01 -8.84 -0.62 -17.78 -1.76 -26.67 -0.05 -0.44 -0.11 -0.88 -0.17 -1.32m-104.71 -5.28c0.95 -5.64 5.02 -11.65 11.46 -10.75 7.14 1 11.92 8.31 14.36 14.43 0.88 2.42 1.59 5.27 1.86 8.19 0.09 0.13 0.14 0.32 0.14 0.61 -0.06 4.52 1.39 10.71 5.54 13.33 6.59 4.17 8.48 -6.07 7.43 -10.35 -0.03 -0.11 -0.03 -0.23 -0.02 -0.36 -2.04 -4.79 -2.87 -10.15 -2.03 -15.1 0.95 -5.64 5.02 -11.65 11.46 -10.75 7.14 1 11.92 8.31 14.36 14.43 2.59 7.1 3.66 18.01 -3.34 23.14 -5.28 3.87 -11.59 0.46 -15.43 -3.77 -0.88 -0.97 -1.68 -2.02 -2.43 -3.14 -0.58 4.34 -2.66 8.64 -6.81 9.7 -5.14 1.31 -8.32 -3.36 -9.91 -8.33 -0.84 2.16 -2.17 4.08 -4.16 5.54 -5.28 3.87 -11.59 0.46 -15.43 -3.77 -5.41 -5.98 -8.4 -15.05 -7.05 -23.05m87.33 48.35c-1.71 8.17 -6.06 15.56 -11.87 21.5 -11.87 12.15 -30.24 19.57 -47.27 17.87 -18.08 -1.81 -34.52 -14.03 -40.41 -31.36 -2.63 -8.33 -5.04 -25.92 6.47 -29.02 4.93 -1.33 10.28 1.18 14.73 3.03 6.31 2.63 12.41 5.48 19.24 6.45 5.95 0.84 12.07 0.51 17.82 -1.3 3.9 -1.23 7.56 -3.16 11.34 -4.7 6.25 -2.55 13.77 -5.26 20.52 -3.06 8.6 2.8 11.11 12.58 9.43 20.59m27.94 -229.87v24.2c7.22 -6.24 14.43 -12.49 21.65 -18.73 -7.21 -1.82 -14.43 -3.65 -21.65 -5.47M87.76 116.43l14.82 6.81c-0.76 -4.17 -1.51 -8.35 -2.27 -12.52 -4.18 1.9 -8.36 3.8 -12.55 5.71m82.72 -96.97c-5.43 1.2 -10.86 2.41 -16.29 3.61l9.58 8.8c2.24 -4.14 4.47 -8.28 6.71 -12.41" stroke-width="1"></path>
        <path fill="#56c8ee" d="M126.81 165.42c6.38 6.72 12.62 14.68 14.36 24l4.6 0.42c-0.82 -9.21 -5.31 -17.75 -10.96 -24.99 -6.39 -8.19 -14.52 -15.24 -23.65 -20.22 -18.06 -9.85 -41.66 -8.74 -56.25 6.74 -3.26 3.46 -5.95 7.4 -8.15 11.61 -2.08 3.97 -4.19 8.57 -5.02 13 -0.19 1.03 -0.39 2.63 0.33 3.52 1.05 1.3 2.39 0.51 3.09 -0.71 1 -1.75 1.32 -4 2.02 -5.89 1.54 -4.14 3.6 -8.08 6.2 -11.65 11.57 -15.92 32.96 -19.36 50.54 -12.19 8.8 3.59 16.39 9.52 22.89 16.36" stroke-width="1"></path>
        <path fill="#f546c4" d="M327.19 138.36c-3.01 2.81 -2.34 5.63 -2.22 9.38 0.09 2.78 0.03 5.55 -0.21 8.31 0.01 0.12 0.01 0.25 -0.01 0.41 -0.02 0.18 -0.04 0.35 -0.05 0.53 -0.01 0.1 -0.03 0.19 -0.06 0.28 -0.53 4.85 -1.67 9.6 -3.64 14.11 -0.09 0.21 -0.22 0.39 -0.36 0.56 -0.48 0.88 -0.95 1.76 -1.49 2.62 -0.18 0.29 -0.38 0.5 -0.58 0.65 -1.44 1.9 -2.49 3.06 -4.52 4.46 -2.52 1.74 -5.33 2.8 -8.26 3.44 -1.18 3.28 -4.78 9.63 -15.11 10.42 0.48 0.1 0.94 0.2 1.33 0.23 1.1 0.09 2.21 0.12 3.32 0.11 5.11 -0.05 10.26 -1.14 14.93 -3.2 18.74 -8.26 24.24 -32.61 22.18 -51.13 -0.6 -3.35 -2.96 -3.32 -5.25 -1.18m-170.09 10.3c-3.31 -3.99 -5.23 -8.46 -5.39 -13.88 -0.08 -0.18 -0.12 -0.44 -0.08 -0.79 0.09 -0.84 0.21 -1.66 0.35 -2.48 -0.04 -0.17 -0.04 -0.4 0.04 -0.72 0.09 -0.35 0.18 -0.71 0.29 -1.06 0 -0.01 0.01 -0.02 0.01 -0.03 1.24 -4.47 3.13 -8.68 5.54 -12.62 0.05 -0.12 0.11 -0.23 0.18 -0.36 0.09 -0.15 0.19 -0.3 0.28 -0.45 0.09 -0.14 0.18 -0.26 0.28 -0.37 0.56 -0.86 1.13 -1.72 1.73 -2.56 1.22 -1.7 2.5 -3.36 3.86 -4.94 0.95 -1.11 2.23 -2.09 2.83 -3.44 0.81 -1.81 0.64 -4.39 -0.01 -6.22 -0.78 -2.21 -2.21 -3.08 -4.15 -1.47 -2.87 2.38 -5.29 5.89 -7.35 8.95 -4.4 6.52 -7.59 13.81 -9.24 21.51 -2.08 10.72 -0.02 21.35 6.94 29.89 2.68 3.29 5.82 5.92 9.32 8.19 -7.34 -6.79 -6.48 -13.8 -5.43 -17.15" stroke-width="1"></path>
        <path d="M124.11 87.15c0.92 1.18 2.87 -1.5 2.07 -2.52 -0.57 -0.74 -0.92 -1.52 -1.08 -2.44 -0.14 -0.78 -1.07 -0.52 -1.49 -0.17 -0.61 0.52 -0.97 1.37 -0.83 2.16 0.19 1.08 0.65 2.11 1.33 2.97m5.89 -2.67c0.69 1.59 2.82 -0.84 2.32 -1.99 -0.43 -0.99 -0.85 -1.97 -1.28 -2.96 -0.69 -1.59 -2.82 0.84 -2.32 1.99 0.43 0.98 0.85 1.97 1.28 2.96m9.01 -1.34c-0.29 -1.61 -2.54 0.77 -2.32 1.99 0.61 3.33 -1.62 5.92 -4.79 6.62 -2.24 0.49 -5.69 0.24 -7.21 -1.73 -0.91 -1.18 -2.87 1.49 -2.07 2.52 2.65 3.44 8.81 2.99 12.08 0.78 3.33 -2.25 5.03 -6.25 4.31 -10.18m154.9 153.82c0.75 -0.96 1.28 -2.06 1.49 -3.26 0.11 -0.6 -0.13 -1.38 -0.89 -1.21 -0.75 0.18 -1.33 1.09 -1.45 1.8 -0.01 0.07 -0.17 0.61 -0.05 0.27 -0.04 0.11 -0.07 0.29 -0.14 0.38 0.04 -0.05 0.06 -0.08 0.08 -0.1 -0.04 0.04 -0.11 0.13 -0.13 0.18 -0.02 0.04 -0.05 0.08 -0.07 0.12 -0.01 0.02 -0.03 0.04 -0.06 0.08 -0.41 0.52 -0.88 1.5 -0.42 2.13 0.45 0.63 1.31 0.04 1.64 -0.39m-5.85 -1.21c0.78 0.09 1.38 -0.84 1.63 -1.43 0.33 -0.77 0.66 -1.53 0.99 -2.3 0.22 -0.51 0.26 -1.54 -0.48 -1.63 -0.78 -0.09 -1.38 0.84 -1.63 1.43 -0.33 0.77 -0.66 1.53 -0.99 2.3 -0.23 0.52 -0.27 1.55 0.48 1.63" stroke-width="1"></path>
        <path d="M293.84 239.4c-1.31 1.7 -5.01 1.13 -6.56 0.27 -1.86 -1.03 -3.05 -3.1 -2.66 -5.24 0.39 -2.15 -2.09 -0.81 -2.34 0.6 -0.58 3.19 0.85 6.5 3.93 7.82 2.81 1.2 6.91 0.83 8.87 -1.71 1.02 -1.35 0.12 -3.51 -1.24 -1.74m-53.67 -73.44c-0.31 -1.69 -2.08 -2.34 -3.61 -1.8 -2.28 0.81 -3.52 3.61 -4.64 5.52 -0.08 0.13 -0.15 0.26 -0.23 0.39 -0.01 0 -0.02 0 -0.03 -0.01 -1.16 -0.26 -2.17 -0.9 -2.95 -1.77 2.07 -2.43 3.9 -6.33 1.26 -8.35 -3.69 -2.83 -5.55 4.26 -5.21 6.65 0.08 0.54 0.21 1.07 0.38 1.57 -0.13 0.05 -0.25 0.1 -0.38 0.14 -1.46 0.44 -2.98 0.36 -4.43 -0.05 0.06 -0.77 0.09 -1.53 0.06 -2.3 -0.11 -3.07 -2.3 -9.9 -6.57 -6.83 -3.64 2.62 -2.09 7.19 0.71 9.69 1 0.9 2.15 1.59 3.35 2.07 -0.74 4.41 -2.86 9.08 -3.92 12.39 -0.67 2.11 1.59 1.85 2.12 0.2 1.22 -3.83 2.91 -7.91 3.77 -12.02 2.18 0.4 4.44 0.08 6.46 -1.1a7.268 7.268 0 0 0 3.75 2.61c-2.49 4.61 -4.53 9.45 -5.04 14.74 -0.21 2.17 2.2 0.86 2.34 -0.6 0.49 -5.03 2.45 -9.53 4.84 -13.86 0.26 -0.01 0.53 -0.02 0.8 -0.06 3.02 -0.39 7.84 -3.58 7.17 -7.22m-25.44 -1.81c-0.57 -1.6 0.94 -2.91 1.98 -1.39 0.91 1.33 1.33 2.89 1.42 4.56 -0.57 -0.32 -1.1 -0.69 -1.6 -1.11 -0.41 -0.35 -1.56 -1.38 -1.8 -2.06m13.09 0.08c0.8 0.41 0.91 0.9 0.33 1.44 -0.13 0.33 -0.32 0.62 -0.56 0.86 -0.13 -0.29 -0.23 -0.58 -0.32 -0.89 -0.17 -0.68 -0.78 -3.49 0.55 -1.41m7.71 5.39c-0.48 0.22 -1 0.38 -1.53 0.48 0.05 -0.08 0.1 -0.16 0.14 -0.24 0.36 -0.6 1.88 -3 2.68 -2.83l0.12 1.72q-0.615 0.57 -1.41 0.87m-20.34 -68.92c0.76 -0.22 1.31 -1.06 1.45 -1.8 0.13 -0.67 0.25 -1.33 0.38 -2 0.11 -0.57 -0.14 -1.42 -0.89 -1.21 -0.76 0.22 -1.31 1.06 -1.45 1.8 -0.13 0.67 -0.25 1.33 -0.38 2 -0.11 0.58 0.14 1.43 0.89 1.21m7.27 -3.47c-0.69 0.4 -1.18 1.24 -1.18 2.05v2c0 0.7 0.62 1.07 1.23 0.71 0.69 -0.4 1.18 -1.24 1.18 -2.05v-2c0 -0.7 -0.63 -1.07 -1.23 -0.71m-0.5 7.62c-1.75 1.29 -4.03 2.5 -6.16 1.34 -1.6 -0.87 -2.41 -2.71 -2.59 -4.44 -0.21 -1.97 -2.54 0.05 -2.41 1.34 0.26 2.5 1.34 5.2 3.83 6.24 2.84 1.19 5.75 -0.49 7.99 -2.14 1.17 -0.88 1.1 -3.64 -0.66 -2.34M83.65 176.44c0.13 0.27 0.25 0.49 0.58 0.53 0.31 0.04 0.68 -0.17 0.9 -0.37 0.32 -0.29 0.59 -0.66 0.73 -1.06 0.11 -0.32 0.25 -0.77 0.1 -1.1 -0.21 -0.47 -0.43 -0.93 -0.64 -1.4 -0.13 -0.27 -0.25 -0.49 -0.58 -0.53 -0.31 -0.04 -0.68 0.17 -0.9 0.37 -0.32 0.29 -0.59 0.66 -0.73 1.06 -0.11 0.32 -0.25 0.77 -0.1 1.1 0.21 0.46 0.42 0.93 0.64 1.4m5.05 -1.93c0.44 0.62 1.32 0.04 1.65 -0.39 0.26 -0.34 0.49 -0.74 0.56 -1.17 0.05 -0.32 0.06 -0.68 -0.13 -0.96l-0.87 -1.23c-0.44 -0.62 -1.32 -0.04 -1.65 0.39 -0.26 0.34 -0.49 0.74 -0.56 1.17 -0.05 0.32 -0.06 0.68 0.13 0.96zm4.35 2.03c-0.7 2.12 -1.66 4.6 -4.1 5.15 -2.45 0.55 -4.81 -0.98 -6.35 -2.72 -1 -1.14 -2.92 1.56 -2.07 2.52 2.2 2.49 5.56 4.24 8.86 2.87 3.13 -1.3 4.78 -4.58 5.78 -7.62 0.69 -2.11 -1.58 -1.85 -2.12 -0.2" stroke-width="1"></path>
        <path d="M248.27 178.23c4.32 -7.51 5.1 -16.6 1.46 -24.55 -3.72 -8.13 -11.71 -13.83 -20.62 -14.65 -18.6 -1.71 -33.38 17.47 -27.34 35.07 0.85 2.47 2.07 4.84 3.63 6.94 0.32 0.43 0.66 0.85 1 1.26 0.11 0.13 1.5 1.23 1.5 1.23 0.12 0.23 0.01 0.92 0.01 1.18 0.02 2.82 0.05 5.65 0.07 8.47 0 0.22 0.1 0.69 0.37 0.78l17.73 5.79c0.89 0.29 1.6 -0.61 1.9 -1.35 1.05 -2.58 2.09 -5.16 3.14 -7.74 7.24 -1.64 13.22 -6.1 17.15 -12.43m-37.91 13.04c0.14 0.24 -0.02 0.56 0 0m1.61 0.43c-0.48 -0.16 -1.06 -0.45 -1.6 -0.57 0 -0.05 0.01 -0.1 0.01 -0.16 0.09 -0.85 -0.02 -1.79 -0.02 -2.64 -0.01 -1.52 -0.03 -3.04 -0.04 -4.56 -0.02 -1.77 -0.04 -1.97 -1.32 -3.38 -7.94 -8.78 -8.38 -22.61 -0.09 -31.34 7.48 -7.87 19.9 -9.17 29.11 -3.67 10.91 6.51 14.87 20.8 8.5 31.85 -2.26 3.64 -5.39 6.58 -9.23 8.5 -1.57 0.78 -3.22 1.38 -4.92 1.8 -1.47 0.36 -2.18 0.38 -2.9 1.73 -1.2 2.25 -2.05 4.77 -2.96 7.2 -4.83 -1.58 -9.69 -3.17 -14.54 -4.76m-21.86 -70.14c2.01 4 10.72 1.35 13.73 0.48 3.86 -1.11 7.66 -2.57 11.3 -4.28 2.12 3.06 4.33 6.08 6.65 9 1.58 1.99 3.2 4.01 5.08 5.74 0.9 0.83 2.06 2.01 3.39 1.61 3.46 -1.05 2.16 -7.93 1.86 -10.33 -0.38 -3.1 -0.89 -6.18 -1.5 -9.24 2.47 -0.63 4.93 -1.34 7.36 -2.13 3.17 -1.04 8.28 -2.27 10.1 -5.41 3.31 -5.71 -12.22 -8.38 -16.76 -9.2a92.09 92.09 0 0 0 -0.51 -9.54c-0.29 -2.69 -0.47 -8.84 -3.42 -10.27 -3.09 -1.5 -7.63 3.36 -9.52 5.15 -2.44 2.32 -4.75 4.8 -6.93 7.37 -4.87 -1.64 -19.89 -6.67 -20.01 0.73 -0.05 3.31 3.31 6.81 5.26 9.15 1.58 1.9 3.25 3.75 4.97 5.53a73.72 73.72 0 0 0 -6.13 5.59c-2.04 2.11 -6.64 6.65 -4.92 10.05m13.45 -14.7c0.49 -0.38 1.32 -1.81 0.71 -2.43 -3.68 -3.69 -7.77 -7.78 -10.19 -12.44 -0.13 -0.26 -0.29 -0.91 -0.47 -1.32 0.1 -0.02 0.18 -0.04 0.2 -0.03 2.27 0.08 4.42 0.13 6.68 0.55 3.22 0.59 6.43 1.43 9.54 2.46 0.1 0.03 0.2 0.04 0.3 0.04 0.3 0.08 0.7 -0.07 1.15 -0.62 1.89 -2.29 3.9 -4.5 6.01 -6.59 1.4 -1.39 6.37 -7.08 8.63 -5.32 1.08 0.84 1.39 3.08 1.65 4.3 0.44 2.07 0.66 4.19 0.83 6.3 0.21 2.7 0.33 5.41 0.32 8.11 0 0.42 0.2 0.78 0.63 0.86 2.88 0.54 5.74 1.23 8.55 2.05 2.01 0.59 4.06 1.24 5.93 2.21 0.55 0.28 1.31 1.05 1.87 1.29 -1.4 0.36 -2.94 1.53 -4.34 2.06 -1.82 0.69 -3.68 1.29 -5.54 1.84 -2.21 0.66 -4.44 1.27 -6.68 1.81 -0.98 0.23 -1.64 1.56 -1.44 2.5 0.58 2.73 1.08 5.48 1.49 8.24 0.32 2.13 0.61 4.28 0.68 6.43 0.01 0.35 -0.1 1.03 -0.12 1.6 -1.17 -1.29 -2.6 -2.37 -3.76 -3.72 -1.48 -1.71 -2.87 -3.49 -4.24 -5.3 -1.73 -2.29 -3.42 -4.61 -5.05 -6.97 -0.26 -0.38 -0.71 -0.28 -1.06 -0.12 -2.99 1.45 -6.1 2.67 -9.25 3.71 -2.54 0.83 -5.14 1.57 -7.79 1.91 -1.49 0.19 -4.94 0.67 -6.16 -0.62 -2.5 -2.61 8.84 -11.2 10.92 -12.79m-84.16 -7.18c0.43 2.87 0.96 5.73 1.61 8.56 0.6 2.62 1.35 8.61 4.08 10.08 4.42 2.39 8.65 -11.11 10.14 -16.27 3.12 0.26 6.26 0.37 9.38 0.31 3.27 -0.07 8.68 0.12 10.75 -3.01 2.22 -3.36 -1.47 -7.72 -3.44 -10.25 -2.2 -2.83 -4.62 -5.51 -7.15 -8.06 1.91 -4.53 7.69 -19.2 1.92 -19.19 -3.38 0.01 -7.1 3.08 -9.71 4.9 -1.99 1.4 -3.94 2.86 -5.83 4.39 -1.78 -2.74 -3.72 -5.41 -5.87 -7.86 -1.86 -2.14 -5.76 -6.88 -8.98 -4.52 -3.9 2.87 -2.62 10.25 -1.91 14.21 0.69 3.83 1.73 7.63 3.04 11.31 -2.84 1.64 -5.65 3.35 -8.39 5.15 -2.64 1.73 -8.59 4.75 -8.98 8.4 -0.49 4.68 14.85 2.46 19.34 1.85m-0.26 -13.6c0.68 -0.38 1.45 -1.55 1.14 -2.37a78.674 78.674 0 0 1 -2.81 -9.24c-0.65 -2.7 -1.19 -5.45 -1.31 -8.23 -0.04 -1.04 -0.34 -4.61 0.85 -5.08 1.08 -0.43 3.03 1.44 3.7 2.04 1.53 1.36 2.86 2.96 4.12 4.56 1.67 2.1 3.24 4.3 4.68 6.56 0.32 0.51 1.02 0.18 1.36 -0.1 3.95 -3.29 8.73 -7.65 13.74 -9.09 1.1 -0.32 1.66 -0.47 2.03 0.61 0.61 1.78 -0.58 4.97 -1.06 6.7 -0.84 3.02 -1.92 5.99 -3.15 8.87 -0.27 0.41 -0.42 0.89 -0.38 1.28 0 0.09 0.02 0.18 0.04 0.25 0.01 0.02 0.01 0.03 0.02 0.05q0.06 0.135 0.15 0.24c2 1.98 3.91 4.07 5.73 6.22 1.35 1.6 2.68 3.24 3.82 5 0.54 0.83 1.11 1.71 1.46 2.64 0.25 0.66 0.17 1.44 0.55 1.01 -0.79 0.9 -3.24 0.96 -4.32 1.08 -2.16 0.24 -4.35 0.26 -6.52 0.23 -2.6 -0.04 -5.21 -0.16 -7.81 -0.41 -0.73 -0.07 -1.46 0.82 -1.63 1.43 -0.83 2.91 -1.8 5.8 -2.92 8.62 -0.78 1.97 -1.6 4.18 -2.93 5.86 -0.82 1.04 -1.09 0.69 -1.75 -0.43 -1.77 -2.94 -2.36 -6.86 -3.04 -10.17 -0.49 -2.36 -0.92 -4.74 -1.26 -7.13 -0.07 -0.45 -0.51 -0.55 -0.88 -0.51 -2.86 0.35 -5.74 0.6 -8.61 0.75 -2.12 0.12 -4.25 0.2 -6.37 0.07 -0.75 -0.05 -1.58 -0.07 -2.31 -0.27 -0.13 -0.04 -0.4 -0.16 -0.6 -0.23 2.42 -2.55 5.72 -4.43 8.65 -6.27 2.49 -1.56 5.04 -3.08 7.62 -4.54m-16.36 10.8a0.653 0.653 0 0 0 -0.11 -0.02c-0.77 0.14 0.8 -0.99 0.11 0.02m206.21 142.48c-2.21 -1.97 -4.54 -3.81 -6.92 -5.57 1.04 -3.33 1.87 -6.76 2.38 -10.2 0.36 -2.46 1.65 -9.84 -1.95 -10.7 -3 -0.71 -6.55 3.59 -8.27 5.43a70.638 70.638 0 0 0 -4.91 5.87 72.553 72.553 0 0 0 -5.01 -3.75c-1.83 -1.25 -5.07 -3.88 -7.52 -3.27 -5.26 1.31 -0.88 11.88 0.87 15.91a68.513 68.513 0 0 0 -4.72 5.36c-1.49 1.89 -4.97 5.89 -3.65 8.59 1.19 2.44 6.1 2.17 8.28 2.21 2.47 0.04 4.94 -0.08 7.4 -0.29 0.97 3.47 4.33 15.36 8.21 12.24 2.22 -1.79 2.87 -5.68 3.48 -8.27 0.44 -1.87 0.82 -3.76 1.13 -5.66 2.29 0.25 4.59 0.43 6.9 0.51 2.32 0.08 6.54 0.62 7.95 -1.83 1.48 -2.63 -1.99 -5.09 -3.65 -6.58m-1.09 5.36c-1.49 0.01 -2.98 -0.06 -4.47 -0.16 -1.98 -0.13 -3.96 -0.31 -5.93 -0.55 -0.87 -0.11 -1.64 1.11 -1.75 1.83q-0.36 2.445 -0.84 4.86c-0.29 1.45 -0.6 2.89 -0.98 4.31 -0.24 0.87 -0.55 2.98 -1.27 3.59 -0.02 0.02 -0.03 0.03 -0.05 0.04 -0.01 -0.01 -0.02 -0.02 -0.04 -0.02 -0.46 -0.17 -0.84 -0.92 -1.1 -1.3 -0.95 -1.4 -1.59 -3.02 -2.21 -4.59a70.88 70.88 0 0 1 -2.14 -6.36c-0.13 -0.45 -0.46 -0.55 -0.88 -0.51 -1.43 0.13 -3.86 0.26 -5.64 0.29 -2.25 0.04 -6.59 0.53 -8.51 -0.93 -2.25 -1.71 5.85 -9.5 7.44 -11.08 0.04 -0.04 0.07 -0.08 0.1 -0.12 0.56 -0.55 0.98 -1.46 0.73 -2.04 -0.9 -2.07 -1.68 -4.21 -2.34 -6.37 -0.53 -1.72 -0.72 -3.46 -1.13 -5.2 0 -0.01 0 -0.05 -0.01 -0.1 0.41 0.11 0.94 0.23 1.01 0.25 3.79 1.5 7.26 4.44 10.36 7.02 0.43 0.36 1.22 -0.26 1.45 -0.58 1.27 -1.74 2.62 -3.43 4.03 -5.06 1.33 -1.54 4.73 -6.24 7.14 -6.05 4.23 0.33 -0.45 16.24 -1.29 18.8 -0.17 0.51 -0.27 1.18 0.22 1.55 1.72 1.27 3.41 2.58 5.06 3.94 1.31 1.07 2.62 2.16 3.82 3.36 0.29 0.29 0.55 0.61 0.83 0.93 -0.68 0.12 -1.37 0.24 -1.61 0.25m-199.08 -53.91c3.92 -3.1 -3.66 -8.38 -4.71 -10.97 -1.49 -3.64 0.6 -6.24 2.49 -9.18 0.86 -1.34 2.76 -4.05 2.07 -5.82 -0.59 -1.52 -2.45 -1.22 -3.77 -1.02 -3.22 0.49 -6.22 2.45 -9.54 1.68 -3.7 -0.85 -5.53 -4.48 -8.22 -6.81 -1.47 -1.28 -3.34 -2.57 -5.11 -1.1 -5.06 4.21 -1.18 12.82 -7.89 15.84 -2.31 0.94 -11.08 4.22 -8.41 8.21 1.41 2.11 5.01 2.27 7.07 3.31 2.79 1.41 4.46 4.22 4.35 7.34 -0.11 2.92 -1.39 10.32 4 7.99 2.24 -0.97 4.07 -2.92 5.64 -4.74 2.3 -2.66 3.81 -6.05 7.68 -6.59 2.99 -0.41 6.02 1.16 8.88 1.83 1.59 0.4 4 1.19 5.47 0.03m-21.26 0.47c-1.15 1.55 -5.3 7.57 -7.71 6.33 -1.75 -0.9 -0.17 -6.25 -0.32 -7.94a9.629 9.629 0 0 0 -2.8 -5.96c-2.06 -2.02 -4.73 -2.26 -7.23 -3.48 0.04 0.02 -1.38 -0.86 -1.8 -0.72 0.34 -0.32 1.31 -0.84 1.52 -0.97 1.56 -0.95 3.27 -1.66 4.96 -2.35 2.47 -1.11 4.4 -2.99 5.56 -5.44 1.36 -2.89 1.19 -6.24 2.24 -9.24 0.68 -1.94 1.36 -1.6 2.87 -0.43 1.47 1.14 2.67 2.6 3.89 3.99 1.96 2.23 4.39 3.72 7.44 3.71 1.39 -0.01 2.64 -0.39 3.94 -0.81 1.17 -0.37 4.09 -1.71 5.3 -1.22 0.95 0.38 0.93 0.11 0.36 1.42 -0.4 0.92 -1.2 1.96 -1.76 2.75 -0.83 1.19 -1.67 2.33 -2.18 3.7 -0.95 2.56 -0.92 5.48 0.28 7.95 0.63 1.31 1.55 2.26 2.5 3.34 0.44 0.5 1.35 1.39 2.03 2.3 -0.78 -0.16 -1.61 -0.32 -1.76 -0.35 -1.47 -0.33 -2.92 -0.75 -4.37 -1.18 -2.65 -0.8 -5.07 -1.16 -7.7 -0.04 -2.33 0.96 -3.79 2.66 -5.26 4.64m193.33 91.34c-3.82 0.6 -7.45 2.79 -10.61 5.39 -0.07 -0.46 -0.13 -0.92 -0.2 -1.38 -1.48 -9.94 -3.44 -19.85 -6 -29.57 -0.13 -0.51 -0.27 -1.02 -0.41 -1.52 0.02 -0.18 0.04 -0.37 0.04 -0.56q0 -0.21 -0.03 -0.36c-0.51 -5.41 -8.15 -7.94 -12.38 -9.35 -10.44 -3.49 -21.59 -4.92 -32.52 -5.82a268.448 268.448 0 0 0 -43.56 -0.04c-10.99 0.88 -22.23 2.25 -32.74 5.71 -4.82 1.58 -12.3 4.15 -13.65 9.83 -0.22 0.93 -0.2 1.78 -0.01 2.57 -0.12 0.26 -0.2 0.53 -0.22 0.78 -2.7 9.2 -4.7 18.69 -6.11 28.23 -6.21 -4.23 -13.92 -6.53 -17.66 1.75 -3.98 8.8 -2.74 21.36 3.22 28.98 3.12 3.99 7.42 6.21 12.12 7.07 0.81 16.72 4.95 33.65 17.15 44.86 10.24 9.41 25.35 14.07 38.79 16.34 15.03 2.55 30.71 2.09 45.56 -1.39 12.85 -3.01 25.84 -8.44 35.5 -17.67 9.62 -9.19 13.37 -21.37 14.76 -34.34 0.28 -2.57 0.46 -5.15 0.58 -7.73 4.11 -0.66 7.97 -2.32 11.09 -5.33 4.02 -3.88 6.35 -9.22 7.28 -14.67 1.22 -7.03 1.05 -23.51 -9.99 -21.78m-159.98 17.37 -6.05 -5c-0.99 -0.82 -2.76 1.99 -1.67 2.89 2.46 2.04 4.92 4.07 7.38 6.11 -0.41 5.44 -0.64 11.2 -0.5 17.04 -2.81 -0.68 -5.46 -1.92 -7.73 -3.92 -3.68 -3.26 -5.76 -7.96 -6.68 -12.71 -1.17 -6.02 -1.62 -21.03 8.31 -18.52 2.84 0.72 5.57 2.32 8.03 4.23 -0.43 3.28 -0.8 6.58 -1.09 9.88m21 -51.88c9.22 -3.03 19.02 -4.41 28.65 -5.34 13.17 -1.28 26.48 -1.47 39.69 -0.77 11.84 0.63 23.85 1.86 35.33 4.95 3.86 1.04 7.8 2.29 11.27 4.31 1.66 0.97 3.97 2.44 4.39 4.51 0.04 0.18 0.06 0.36 0.07 0.54 -0.01 0.32 -0.1 0.62 -0.23 0.9 -0.61 1.29 -2.32 2.27 -3.44 2.9 -0.05 0.03 -0.11 0.06 -0.16 0.09 -3.13 1.78 -6.61 2.92 -10.06 3.89 -1.26 0.35 -2.53 0.68 -3.8 0.99 -6.95 1.68 -14.08 2.7 -21.21 3.38 -2.01 0.19 -4.03 0.36 -6.04 0.5 -12.87 0.93 -25.83 0.94 -38.71 0.03 -5.65 -0.4 -11.34 -0.95 -16.97 -1.81 -4.79 -0.73 -9.55 -1.68 -14.21 -2.95 -3.55 -0.97 -7.12 -2.13 -10.36 -3.89 -0.37 -0.2 -0.75 -0.42 -1.15 -0.65 -1.33 -0.79 -2.71 -1.8 -3.42 -3.12 -0.1 -0.18 -0.19 -0.37 -0.26 -0.57 -1.57 -4.27 8.03 -7.04 10.62 -7.89m128.33 73.55c0 0.51 -0.01 1.03 -0.02 1.55l-0.03 1.46c-0.31 11.8 -1.97 24.66 -8.97 34.15 -7.52 10.2 -19.54 16.45 -31.37 20.22 -27.17 8.66 -60.89 7.04 -85.37 -8.53 -15.35 -9.76 -20.49 -28.1 -21.68 -45.85 -0.03 -0.51 -0.07 -1.02 -0.1 -1.53 -0.03 -0.55 -0.06 -1.1 -0.08 -1.64 -0.19 -4.46 -0.15 -8.85 0.02 -13.01 0.23 -5.56 0.69 -11.13 1.38 -16.68 0.08 -0.62 0.15 -1.25 0.24 -1.87 0.08 -0.64 0.17 -1.28 0.26 -1.92 1.32 -9.4 3.27 -18.73 5.75 -27.84 1.98 2.27 5.39 3.8 7.82 4.77 9.56 3.84 20.14 5.34 30.32 6.42 14.21 1.5 28.58 1.74 42.84 0.93 12.74 -0.72 25.85 -2.03 38.06 -5.92 3.83 -1.22 9.67 -3.16 12.6 -6.78 2.68 9.87 4.79 20.05 6.22 30.31 0.06 0.45 0.13 0.89 0.19 1.34 0.06 0.44 0.12 0.88 0.17 1.32 1.13 8.89 1.75 17.83 1.76 26.67 0 0.8 0 1.61 -0.01 2.43m14 -6.36c-2.97 3.71 -7.14 5.55 -11.62 6.15 0.14 -5.7 -0.05 -11.42 -0.49 -17.11 0.14 -0.06 0.3 -0.15 0.48 -0.3 2.6 -2.15 5.19 -4.3 7.79 -6.44 1.1 -0.91 1.03 -3.72 -0.66 -2.33 -2.6 2.15 -5.19 4.3 -7.79 6.44 -0.02 0.01 -0.03 0.03 -0.05 0.05 -0.33 -3.7 -0.76 -7.4 -1.26 -11.07 2.13 -1.73 4.46 -3.35 7.03 -4.34 4.37 -1.69 8.04 -0.38 9.73 3.91 3.07 7.71 2.08 18.5 -3.16 25.04" stroke-width="1"></path>
        <path d="M241.52 313.72c-6.75 -2.2 -14.26 0.51 -20.52 3.06 -3.78 1.54 -7.45 3.47 -11.34 4.7 -5.75 1.81 -11.87 2.14 -17.82 1.3 -6.84 -0.97 -12.94 -3.82 -19.24 -6.45 -4.45 -1.86 -9.8 -4.36 -14.73 -3.03 -11.51 3.1 -9.1 20.69 -6.47 29.02 5.89 17.32 22.33 29.55 40.41 31.36 17.03 1.71 35.41 -5.72 47.27 -17.87 5.8 -5.94 10.15 -13.33 11.87 -21.5 1.67 -8.01 -0.84 -17.79 -9.43 -20.59m-2.36 38.97c-10.45 11.46 -27.07 18.5 -42.57 18.16 -18.79 -0.42 -36.77 -12.53 -42.88 -30.52 -1.63 -5.18 -2.43 -10.75 -1.76 -16.17 0.36 -2.93 1.3 -6.04 4.16 -7.4 2.03 -0.97 4.39 -0.88 6.55 -0.42 4.9 1.05 9.52 3.46 14.12 5.38 4.5 1.89 9.08 3.43 13.92 4.11 8.88 1.25 17.01 -0.48 25.12 -4.05 6.06 -2.67 12.6 -5.72 19.35 -5.77 8.09 -0.06 14.03 6.32 13.97 14.42 -0.06 8.23 -4.57 16.33 -9.98 22.26" stroke-width="1"></path>
        <path d="M186.1 312.78c1.98 -1.45 3.32 -3.37 4.16 -5.54 1.59 4.97 4.77 9.64 9.91 8.33 4.16 -1.06 6.24 -5.37 6.81 -9.7 0.74 1.11 1.55 2.17 2.43 3.14 3.84 4.23 10.15 7.65 15.43 3.77 7 -5.13 5.93 -16.04 3.34 -23.14 -2.45 -6.11 -7.22 -13.43 -14.36 -14.43 -6.44 -0.9 -10.51 5.11 -11.46 10.75 -0.84 4.95 0 10.32 2.03 15.1 -0.01 0.13 -0.01 0.25 0.02 0.36 1.05 4.28 -0.83 14.52 -7.43 10.35 -4.14 -2.62 -5.6 -8.81 -5.54 -13.33 0 -0.29 -0.05 -0.48 -0.14 -0.61 -0.27 -2.92 -0.98 -5.78 -1.86 -8.19 -2.45 -6.11 -7.22 -13.43 -14.36 -14.43 -6.44 -0.9 -10.51 5.11 -11.46 10.75 -1.35 8 1.64 17.07 7.05 23.04 3.83 4.24 10.14 7.65 15.43 3.78m20.05 -31.9c0.02 0.07 0.05 0.15 0.08 0.22 4.09 8.06 11.91 12.78 20.42 15.11a0.7 0.7 0 0 0 0.43 -0.02c1.25 6.45 1.09 15.22 -6.4 15.26 -6.95 0.04 -12.16 -7.74 -14.34 -13.45 -1.56 -4.06 -3.24 -12.7 -0.19 -17.12m-38.74 0c0.02 0.07 0.05 0.15 0.08 0.22 4.09 8.06 11.91 12.78 20.42 15.11a0.7 0.7 0 0 0 0.43 -0.02c1.25 6.45 1.09 15.22 -6.4 15.26 -6.95 0.04 -12.16 -7.74 -14.34 -13.45 -1.55 -4.06 -3.24 -12.7 -0.19 -17.12m55.37 42.48a0.967 0.967 0 0 0 -0.55 0.13c-0.16 0.09 -0.31 0.17 -0.47 0.26 -1.55 0.61 -3.03 1.3 -4.4 1.98 -5.11 2.53 -10.42 4.49 -15.85 5.2 -6.75 0.44 -12.81 -0.95 -18.76 -3.43 -6.94 -3.59 -15.98 -9.2 -21.97 -3.56 -4.61 4.35 -3.77 12.22 -1.65 17.56 10.63 25.65 48.96 28.48 69.02 13.01 4.84 -3.73 8.9 -8.82 11.56 -14.32 2.23 -4.61 3.85 -10.91 -0.2 -15.03 -4.62 -4.69 -11.02 -3.88 -16.73 -1.8m-44.23 9.89a31.04 31.04 0 0 1 -1.37 -4.64c0.79 0.39 1.58 0.76 2.36 1.11 6.09 2.72 12.2 4.38 18.96 4.31v0.22c0.01 4.36 0.01 8.73 0.02 13.09 -8.62 -0.38 -16.75 -5.63 -19.97 -14.09m40.13 1.23c-1.98 4.74 -5.3 8.85 -10.07 10.96 -2.48 1.1 -5.08 1.7 -7.66 1.87 -0.01 -4.42 -0.01 -8.84 -0.02 -13.27v-0.11c0.07 -0.01 0.15 -0.01 0.22 -0.01 0.77 -0.06 1.53 -0.15 2.29 -0.27 6.16 -0.95 12.06 -3.69 17.52 -6.68 -0.32 2.56 -1.35 5.27 -2.28 7.51m-70.27 -73.89c8.01 2.06 16.44 2.71 24.66 3.24 11.69 0.76 23.44 0.87 35.15 0.44 10.25 -0.37 20.67 -0.99 30.74 -3.03 3.46 -0.7 10.5 -1.73 11.21 -6.18 0.04 -0.14 0.06 -0.27 0.05 -0.4 0.02 -0.3 -0.03 -0.5 -0.11 -0.62 -0.93 -3.11 -6.98 -3.94 -9.42 -4.47 -8.78 -1.9 -17.88 -2.54 -26.83 -2.99 -11.76 -0.59 -23.57 -0.59 -35.33 0 -8.86 0.44 -17.85 1.09 -26.55 2.9 -3.27 0.68 -9.53 1.6 -10.78 5.45 -1.25 3.79 4.69 5.01 7.21 5.66m79.15 -57.69c-6.63 -2.26 -13.25 -4.52 -19.88 -6.78 -1.33 -0.45 -2.88 2.48 -1.67 2.89 6.63 2.26 13.25 4.52 19.88 6.78 1.34 0.46 2.88 -2.47 1.67 -2.89m-21.07 -1.34c-1.34 -0.45 -2.88 2.49 -1.67 2.89 5.99 1.99 11.97 3.99 17.96 5.98 1.34 0.45 2.88 -2.49 1.67 -2.89 -5.98 -1.99 -11.97 -3.99 -17.96 -5.98M184.93 80.75c5.48 -0.55 9.17 -5.43 9.51 -10.68 0.01 -0.09 0.02 -0.18 0.02 -0.27 0.01 -0.17 -0.01 -0.29 -0.04 -0.4 -0.05 -0.57 -0.12 -1.13 -0.25 -1.67 3.54 -1.47 7.08 -2.94 10.62 -4.4 1.89 2.29 4.82 3.67 8.03 3.33 5.32 -0.55 8.86 -5.3 9.2 -10.37 0.01 -0.09 0.02 -0.18 0.02 -0.27 0.01 -0.17 -0.01 -0.3 -0.04 -0.41 -0.28 -3.33 -2.09 -6.26 -4.79 -7.8 0.11 -0.13 0.21 -0.28 0.3 -0.47 2.68 -5.34 5.36 -10.69 8.04 -16.03 0.95 0.39 2.01 0.57 3.12 0.44 3.96 -0.43 6.51 -3.97 6.84 -7.72l0.03 -0.3c0.01 -0.19 -0.01 -0.34 -0.05 -0.45 -0.42 -3.74 -3.4 -6.71 -7.38 -6.21 -3.82 0.48 -6.75 4.23 -6.72 8.01 0.02 2.08 0.97 3.96 2.45 5.2 -2.69 5.36 -5.37 10.71 -8.06 16.07 -0.13 0.27 -0.2 0.51 -0.23 0.74a9.081 9.081 0 0 0 -3.71 -0.37c-1.58 0.17 -3.04 0.74 -4.32 1.59 -3.99 -4.72 -7.99 -9.44 -11.98 -14.16 0.35 -0.88 0.58 -1.81 0.66 -2.76l0.03 -0.3c0.01 -0.19 -0.01 -0.34 -0.05 -0.45 -0.42 -3.74 -3.4 -6.71 -7.38 -6.21 -3.82 0.48 -6.75 4.23 -6.72 8.01 0.03 3.9 3.33 7.11 7.28 6.68 1.75 -0.19 3.22 -0.99 4.35 -2.14l11.43 13.5c-1.58 1.92 -2.53 4.37 -2.52 6.9 0.01 1.34 0.3 2.61 0.81 3.77 -3.38 1.4 -6.77 2.81 -10.15 4.21 -1.72 -3.33 -5.16 -5.54 -9.29 -5.13 -5.38 0.54 -9.57 5.61 -9.53 10.94 0.02 5.59 4.82 10.15 10.47 9.58m38.87 -57.01c0.07 -2.61 2.65 -4 5.04 -3.59 2.45 0.43 4.16 2.47 4.29 4.92 -0.2 3.65 -3.81 4.29 -6.48 2.98 -0.15 -0.4 -0.5 -0.61 -0.88 -0.54 -1.18 -0.85 -2.01 -2.15 -1.97 -3.77m-34.28 3.75c2.45 0.43 4.16 2.48 4.29 4.92 -0.32 5.88 -9.46 3.96 -9.33 -1.34 0.07 -2.61 2.65 -4 5.04 -3.58m17.3 24.24c0.34 -0.1 0.69 -0.4 0.96 -0.78 1.55 -1.04 3.56 -1.47 5.5 -1.11 3.67 0.68 6.19 3.86 6.35 7.51 -0.42 9.34 -14.59 7.37 -14.61 -1.34 0 -1.74 0.71 -3.2 1.8 -4.28m-21.44 11.6c3.85 0.69 6.51 3.97 6.67 7.82 -0.41 9.73 -15.25 7.74 -15.2 -1.34 0.03 -4.46 4.36 -7.22 8.53 -6.48m67.28 22.4c4.74 0.47 8.36 -2.51 10.28 -6.61 1.03 -2.19 1.67 -4.63 1.96 -7.08 0.39 -1.91 0.55 -3.89 0.73 -5.59 0.59 -5.63 0.77 -11.27 0.55 -16.92 7.75 2.02 15.7 2.59 23.68 1.76 -0.26 6.31 -0.82 12.6 -1.61 18.86 -4.11 -1.34 -8.57 -1.41 -12.2 1.35 -2.95 2.24 -4.92 6 -4.74 9.75 0.18 3.79 2.83 6.46 6.58 6.84 4.74 0.47 8.36 -2.51 10.28 -6.61 1.36 -2.9 2.05 -6.24 2.13 -9.45 0.07 -0.24 0.09 -0.48 0.06 -0.69v-0.04c0.98 -7.4 1.68 -14.83 1.94 -22.29 0.02 -0.59 -0.38 -0.9 -0.92 -0.83 -8.95 1.05 -17.93 0.21 -26.56 -2.4 -1.19 -0.36 -2.62 2.59 -1.16 3.05 0.33 5.9 0.26 11.81 -0.33 17.69 -0.04 0.43 -0.08 0.89 -0.12 1.35 -4.17 -1.4 -8.72 -1.53 -12.41 1.28 -2.95 2.24 -4.92 6 -4.74 9.75 0.2 3.78 2.85 6.45 6.6 6.83m29.87 -1.23c-1.98 0.95 -4.34 0.97 -6.49 -0.46 -2.86 -1.91 -2.91 -5.96 -1.01 -8.57 2.99 -4.1 8.56 -3.62 12.78 -1.99 0.03 0.01 0.05 0.02 0.08 0.03v0.14c-0.04 1.03 -0.16 2.08 -0.36 3.11 -0.23 1.19 -0.56 2.35 -1 3.44 -0.79 1.93 -2.25 3.47 -4 4.3M249.8 73.13c2.17 -2.98 5.71 -3.54 9.1 -3 1.31 0.21 2.59 0.58 3.76 1.04 -0.02 0.56 -0.06 1.12 -0.13 1.69 -0.05 0.45 -0.11 0.9 -0.2 1.35 -0.23 1.27 -0.58 2.51 -1.05 3.67q-0.285 0.705 -0.69 1.32c-2.06 3.25 -6.2 4.9 -9.79 2.51 -2.86 -1.92 -2.91 -5.97 -1 -8.58M278.5 101l-0.25 -0.06c-0.89 -0.22 -1.87 1.28 -1.78 2.27v28.6c0 0.98 0.93 1.02 1.53 0.49 8.55 -7.4 17.1 -14.8 25.65 -22.19 0.62 -0.54 1.51 -2.37 0.25 -2.69 -8.46 -2.15 -16.93 -4.28 -25.4 -6.42q0.015 0 0 0m0.38 27.64v-24.2c7.22 1.82 14.43 3.64 21.65 5.47 -7.21 6.24 -14.43 12.49 -21.65 18.73M83.41 118.09c6.72 3.09 13.45 6.18 20.17 9.27 1.24 0.57 2.16 -1.52 2 -2.44 -1.03 -5.68 -2.06 -11.36 -3.09 -17.03 -0.08 -0.45 -0.32 -0.58 -0.6 -0.52 -0.16 -0.01 -0.35 0.03 -0.58 0.14 -5.69 2.59 -11.39 5.18 -17.08 7.77 -0.69 0.29 -1.9 2.31 -0.82 2.81m16.91 -7.37c0.76 4.17 1.51 8.35 2.27 12.52l-14.82 -6.81c4.18 -1.91 8.36 -3.81 12.55 -5.71m62.58 -75.23c0.37 0.34 0.87 0.1 1.28 -0.37q0.225 -0.21 0.42 -0.57c2.97 -5.5 5.95 -11.01 8.92 -16.51 0.33 -0.61 0.65 -2.28 -0.59 -2l-21.67 4.8c-1.08 0.24 -2.02 2.12 -1.12 2.95 4.26 3.89 8.51 7.8 12.76 11.7m7.58 -16.03c-2.23 4.14 -4.47 8.27 -6.7 12.41l-9.58 -8.8c5.42 -1.21 10.85 -2.41 16.28 -3.61" stroke-width="1"></path>
        <path fill="#56c8ee" d="M174.4 227.28c-1.64 -8.22 -4.69 -16.07 -10.12 -22.54 -4.71 -5.31 -10.92 -8.69 -17.74 -10.51l-8.36 -1.32c-10.59 -0.65 -21 1.99 -30.42 6.84 -4.29 2.21 -8.42 4.82 -12.2 7.82 -3.48 2.77 -7.01 6.28 -7.84 10.84 -1.61 8.89 6.48 11.09 13.52 10.58 15.53 -1.11 33.54 -9.1 41.3 -23.34l-5.2 -1.02c-1.64 2.01 -3.52 3.78 -5.55 5.44 -7.14 5.64 -15.54 9.15 -24.4 11.1 -4.14 0.91 -8.95 1.52 -13.07 0.13 -2.49 -0.84 -2.36 -3.16 -0.74 -4.93 1.28 -1.4 3.13 -2.4 4.65 -3.51 1.55 -1.13 3.13 -2.21 4.77 -3.21 3.5 -2.14 7.19 -3.96 11.01 -5.46 7.64 -3.01 15.84 -4.65 24.06 -4.15 3.62 -0.75 8.08 1.09 10.21 2.13 7.14 2.67 13.22 7.47 17.02 14.24 3.53 6.3 5.15 13.48 5.94 20.6 0.5 4.59 0.69 9.26 0.43 13.87 -0.01 0.22 -0.04 0.45 -0.06 0.69 0.24 -0.27 0.45 -0.49 0.59 -0.66 1.29 -1.46 2.68 -2.83 4.04 -4.22 -0.02 -2.13 -0.14 -4.27 -0.25 -6.28 -0.23 -4.4 -0.73 -8.8 -1.59 -13.13" stroke-width="1"></path>
        <path fill="#f546c4" d="M299.38 182.59c0.11 -0.23 0.28 -0.42 0.48 -0.58 0.1 -0.23 0.2 -0.41 0.26 -0.5 3.86 -5.49 5.72 -13.3 3.98 -19.84 -1.94 -7.29 -9.02 -12.81 -16.7 -11.26 -7.42 1.5 -13.71 8.24 -15.9 15.31 -2.3 7.44 -0.63 15.76 4.61 21.5l9.43 -6.31c-0.1 -0.06 -0.2 -0.13 -0.3 -0.19 -4.62 -2.83 -7.42 -7.44 -7.07 -12.91 0 -0.04 0.01 -0.07 0.02 -0.11 0 -0.08 0 -0.16 0.01 -0.26 0.59 -4.78 4.4 -7.58 9.22 -7.25 6.13 0.42 9.76 6.05 9.63 11.81 0 0.18 -0.04 0.39 -0.1 0.6 -0.05 0.25 -0.13 0.61 -0.14 0.61 -0.03 0.13 -0.05 0.27 -0.07 0.4 0.02 0.31 -0.07 0.66 -0.16 0.88 -1.11 2.81 -2.95 5.15 -5.23 7.12l0.2 0.08c-6.46 5.28 -16.43 9.39 -16.43 9.39V191c-10.44 4.24 -22.04 5.68 -31.84 11.36 -9.15 5.3 -15.87 13.59 -19.48 23.5 -3.42 9.39 -4.11 19.62 -3.01 29.49 0.26 2.35 0.14 4.11 2.76 4.5 1.36 0.2 3.2 0.14 4.48 -0.42 2.82 -1.23 1.24 -4.37 0.76 -6.7 -0.43 -2.07 -0.62 -4.22 -0.74 -6.33 -0.48 -8.48 0.62 -18.07 5.13 -25.47 4.54 -7.45 12.4 -11.62 20.53 -14.03 9.92 -2.94 19.72 -5.5 28.9 -10.44 1.65 -0.89 3.68 -2.74 5.53 -3.13 1.91 -1.14 8.6 -5.32 11.24 -10.74m-123.37 -9.64c-0.11 -0.19 -0.15 -0.41 -0.15 -0.66 -1.51 -2.81 -5.11 -9.89 -6.57 -16.23l0.03 0.01 -0.03 -0.09a0.795 0.795 0 0 1 -0.11 -0.33c-0.03 -0.09 -0.03 -0.18 -0.03 -0.28 -0.35 -2.63 -0.31 -5.03 0.42 -7.6 0.06 -0.22 0.22 -0.5 0.42 -0.75 0.13 -0.24 0.26 -0.49 0.37 -0.74 0.12 -0.33 0.31 -0.63 0.46 -0.84 2.92 -3.96 7.9 -6.52 12.82 -4.92 3.66 1.19 7.08 4.76 6.37 8.83 -0.73 4.15 -4.65 7.68 -8.47 9 -1.79 0.62 -4.51 1.1 -6.96 0.86l3.64 10.85c15.61 -2.52 23.28 -22.43 14.03 -35.22 -4.41 -6.1 -12.78 -7.41 -19.18 -3.57 -6.32 3.79 -9.9 11.89 -10.22 19.06 -0.01 0.19 -0.12 0.54 -0.29 0.92 0.06 0.24 0.07 0.49 0.02 0.74 -1.22 5.87 1.47 13.21 2.33 15.34 1.34 1.2 1.65 3.4 2.37 5.07 1.13 2.64 2.43 5.2 3.83 7.7 2.3 4.13 4.85 8.15 7.66 11.96 2.87 3.89 6.02 7.6 8.45 11.78 3.99 6.85 5.82 14.84 3.65 22.6 -2.17 7.71 -6.62 14.82 -12.05 20.66 -0.1 0.1 -0.19 0.2 -0.29 0.3 -0.42 0.44 -0.84 0.89 -1.27 1.32 -0.35 0.36 -0.71 0.72 -1.07 1.08 -1.13 1.15 -2.26 2.3 -3.32 3.52 -0.22 0.25 -0.75 0.82 -1.38 1.51 -0.34 0.38 -0.71 0.81 -1.08 1.24 -0.4 0.48 -0.78 0.97 -1.11 1.43 -0.61 0.88 -1.01 1.66 -0.83 2.08 0.23 0.55 4.38 1.05 5.13 1.18 1.43 0.26 2.82 0.49 4.11 -0.36 1.82 -1.2 3.39 -3.32 4.83 -4.94 1.4 -1.58 2.74 -3.22 4 -4.91 5.41 -7.25 9.4 -15.66 10.87 -24.63 1.61 -9.79 -0.3 -19.9 -4.99 -28.61 -4.68 -8.61 -11.59 -15.8 -16.41 -24.36" stroke-width="1"></path>
        <path d="M334.79 137.81c0 -0.04 0 -0.09 -0.01 -0.13 -1.36 -8.42 -9.81 -1.14 -11.67 3.07 -0.6 1.36 -0.91 2.74 -0.85 4.23 0.13 3.13 0.4 6.2 0.29 9.35 -0.2 5.53 -1.24 10.96 -3.35 16.07 -0.42 0.77 -0.82 1.53 -1.26 2.29 -1.29 1.75 -1.9 2.7 -3.86 4.15 -3.23 2.39 -7.19 3.43 -11.14 3.86 5.57 -9.9 6.68 -24.37 -3.83 -31.23 -12.91 -8.43 -27.62 6.3 -30.37 18.41 -1.65 7.3 -0.18 15.27 4.59 21.05 -9.85 3.68 -20.52 5.24 -29.73 10.47 -7.98 4.53 -14.59 11.27 -18.87 19.39 -4.83 9.18 -6.9 19.57 -6.84 29.89 0.02 2.52 0.16 5.04 0.43 7.54 0.17 1.63 0.04 4.13 1.21 5.44 1.77 1.99 5.69 1.44 7.92 0.77 2.91 -0.88 4.83 -3.3 4.72 -6.43 -0.09 -2.36 -1.02 -4.65 -1.35 -6.99a52.27 52.27 0 0 1 -0.43 -9.19c0.21 -5.49 1.15 -11.24 3.58 -16.21 2.34 -4.77 6.54 -8.26 11.2 -10.67 5.21 -2.7 11.05 -3.84 16.65 -5.43 5.28 -1.5 10.48 -3.44 15.49 -5.69a81.81 81.81 0 0 0 7.05 -3.58c1.15 -0.66 2.3 -1.69 3.68 -1.75 1.52 -0.06 3.16 0.39 4.7 0.43 5.12 0.15 10.32 -0.71 15.12 -2.5 21.87 -8.14 29.38 -35.28 26.95 -56.43 0.01 -0.06 -0.01 -0.12 -0.02 -0.18m-39.46 56.08c-1.11 0.01 -2.21 -0.02 -3.32 -0.11 -0.39 -0.03 -0.85 -0.13 -1.33 -0.23 10.33 -0.79 13.93 -7.14 15.11 -10.42 2.93 -0.64 5.74 -1.71 8.26 -3.44 2.03 -1.4 3.08 -2.56 4.52 -4.46 0.2 -0.15 0.4 -0.36 0.58 -0.65 0.53 -0.87 1.01 -1.74 1.49 -2.62 0.14 -0.16 0.26 -0.35 0.36 -0.56s0.19 -0.42 0.26 -0.64c0 -0.01 0 -0.01 0.01 -0.02 1.8 -4.32 2.86 -8.85 3.37 -13.46 0.03 -0.09 0.05 -0.19 0.06 -0.28 0.02 -0.18 0.04 -0.35 0.05 -0.53 0.02 -0.15 0.01 -0.29 0.01 -0.41 0.25 -2.76 0.31 -5.53 0.21 -8.31 -0.12 -3.75 -0.79 -6.57 2.22 -9.38 2.29 -2.14 4.65 -2.18 5.25 1.19 2.07 18.52 -3.44 42.87 -22.18 51.13 -4.67 2.06 -9.82 3.14 -14.93 3.2m-67.29 52.5c0.12 2.11 0.31 4.26 0.74 6.33 0.48 2.34 2.06 5.47 -0.76 6.7 -1.28 0.56 -3.12 0.63 -4.48 0.42 -2.61 -0.39 -2.5 -2.14 -2.76 -4.5 -1.1 -9.88 -0.41 -20.11 3.01 -29.49 3.61 -9.91 10.33 -18.2 19.48 -23.5 9.8 -5.68 21.41 -7.12 31.84 -11.36v0.09s9.98 -4.11 16.43 -9.39l-0.2 -0.08c2.28 -1.96 4.12 -4.31 5.23 -7.12 0.08 -0.21 0.17 -0.57 0.16 -0.88 0.02 -0.13 0.05 -0.27 0.07 -0.4 0.01 0 0.08 -0.36 0.14 -0.61 0.06 -0.21 0.1 -0.42 0.1 -0.6 0.13 -5.76 -3.5 -11.39 -9.63 -11.81 -4.82 -0.33 -8.63 2.47 -9.22 7.25 -0.01 0.1 -0.01 0.18 -0.01 0.26 -0.01 0.04 -0.02 0.07 -0.02 0.11 -0.35 5.47 2.45 10.08 7.07 12.91 0.1 0.06 0.2 0.12 0.3 0.19l-9.43 6.31c-5.24 -5.74 -6.91 -14.06 -4.61 -21.5 2.19 -7.07 8.48 -13.81 15.9 -15.31 7.68 -1.55 14.77 3.97 16.7 11.26 1.74 6.54 -0.13 14.35 -3.98 19.84 -0.06 0.09 -0.16 0.27 -0.26 0.5 -0.19 0.16 -0.36 0.35 -0.48 0.58 -2.64 5.42 -9.33 9.61 -11.26 10.73 -1.84 0.4 -3.88 2.25 -5.53 3.13 -9.18 4.94 -18.98 7.5 -28.9 10.44 -8.13 2.41 -15.99 6.58 -20.53 14.03 -4.48 7.4 -5.59 16.99 -5.11 25.47m60.98 -82.51c3.72 1.54 5.6 5.28 5.61 9.15 -0.11 0.4 -0.34 1.1 -0.38 1.71 -0.87 1.92 -2.26 3.4 -3.84 4.76 -5.58 -2.17 -10.15 -6.43 -9.85 -12.81 0.62 -3.83 5.36 -4.09 8.46 -2.81m-109.58 8.83c13.39 -3.23 21.03 -18.08 18.58 -31.29 -1.09 -5.89 -4.33 -11.95 -10.14 -14.29 -6.37 -2.57 -13.63 -0.49 -18.49 4.11 -4.56 4.32 -7.53 10.49 -8.58 16.75 -2.67 -2.66 -4.93 -5.74 -6.06 -9.38 -0.67 -2.17 -0.68 -4.1 -0.64 -6.34 0.13 -0.92 0.28 -1.82 0.43 -2.74 1.18 -4.38 3.1 -8.47 5.54 -12.31 1.4 -2.21 3.02 -4.32 4.69 -6.33 1.15 -1.39 2.58 -2.6 3.55 -4.11 2.1 -3.25 2.66 -9.97 -0.59 -12.76 -1.53 -1.31 -3.36 -0.79 -4.85 0.32 -3.28 2.46 -6 6.37 -8.32 9.7 -5.09 7.31 -8.76 15.54 -10.63 24.25 -1.77 9.12 -0.98 18.72 3.76 26.85 2.24 3.85 5.17 7.28 8.54 10.19 1.66 1.43 3.45 2.73 5.34 3.84 2.49 1.47 3 4.46 4.16 7 4.37 9.53 10.62 17.52 16.65 25.99 5.92 8.32 8.94 17.73 5.18 27.6 -1.86 4.89 -4.78 9.43 -8.12 13.43 -0.3 0.36 -0.6 0.71 -0.91 1.05 0.02 -4.68 -0.33 -9.36 -0.98 -13.99 -1.41 -10.12 -4.55 -20.13 -11.21 -28.06 -4.84 -5.45 -11.08 -8.91 -18.04 -10.87 -0.05 -18.94 -14.66 -35.78 -29.51 -45.94 -16.58 -11.35 -39.11 -14.51 -56.55 -3.04 -7.98 5.25 -14.04 12.94 -18.17 21.49 -1.22 2.52 -9.48 19.92 -1.42 19.47 3.63 -0.2 4.93 -5.06 5.81 -7.8 1.59 -4.98 3.9 -9.78 7.17 -13.89 7.22 -9.07 18.59 -13.46 30.03 -13.2 12.24 0.28 23.59 5.74 32.81 13.55 8.36 7.09 17.32 16.78 20.03 27.8 -10.57 -0.49 -20.95 2.2 -30.39 6.98 -8.25 4.18 -18.56 10.31 -21.98 19.45 -1.38 3.69 -1.66 8.54 0.8 11.86 2.07 2.8 5.66 3.76 8.98 3.99 8.85 0.6 18.33 -2.2 26.25 -5.92 9.69 -4.55 18.44 -11.82 23.13 -21.56 8.98 2.86 16.03 9.25 19.71 17.98 3.74 8.89 4.7 19.11 4.3 28.67 -0.04 0.92 -0.21 2.12 -0.26 3.34 -2.27 2.93 -4.43 6.61 -1.99 8.03 1.34 0.78 3.84 0.91 5.38 1.2 1.32 0.24 2.7 0.41 4.01 -0.01 3.26 -1.05 6.08 -5.15 8.2 -7.63 6.05 -7.08 10.92 -15.32 13.57 -24.28 3.08 -10.42 2.84 -21.49 -1.18 -31.63 -4.05 -10.18 -11.86 -18.24 -17.59 -27.52m17.96 53.22c-1.47 8.96 -5.47 17.37 -10.87 24.63 -1.26 1.69 -2.6 3.33 -4 4.91 -1.44 1.62 -3.01 3.74 -4.83 4.94 -1.28 0.84 -2.68 0.62 -4.11 0.36 -0.75 -0.14 -4.9 -0.63 -5.13 -1.18 -0.18 -0.42 0.22 -1.2 0.83 -2.08 0.32 -0.47 0.71 -0.95 1.11 -1.43 0.36 -0.43 0.73 -0.86 1.08 -1.24 0.63 -0.7 1.16 -1.26 1.38 -1.51 1.06 -1.22 2.19 -2.37 3.32 -3.52 0.36 -0.36 0.71 -0.72 1.07 -1.08 0.43 -0.44 0.85 -0.88 1.27 -1.32 0.1 -0.1 0.2 -0.2 0.29 -0.3 5.43 -5.84 9.89 -12.95 12.05 -20.66 2.18 -7.75 0.35 -15.74 -3.65 -22.6 -2.44 -4.18 -5.59 -7.9 -8.45 -11.78 -2.81 -3.8 -5.36 -7.83 -7.66 -11.96 -1.4 -2.5 -2.7 -5.06 -3.83 -7.7 -0.72 -1.68 -1.03 -3.87 -2.37 -5.07 -0.86 -2.13 -3.55 -9.47 -2.33 -15.34 0.05 -0.25 0.03 -0.5 -0.02 -0.74 0.17 -0.37 0.28 -0.73 0.29 -0.92 0.33 -7.17 3.9 -15.26 10.22 -19.06 6.4 -3.84 14.77 -2.54 19.18 3.57 9.25 12.79 1.58 32.7 -14.03 35.22l-3.64 -10.85c2.45 0.24 5.17 -0.24 6.96 -0.86 3.82 -1.32 7.75 -4.85 8.47 -9 0.71 -4.07 -2.72 -7.64 -6.37 -8.83 -4.92 -1.6 -9.9 0.96 -12.82 4.92 -0.15 0.21 -0.33 0.51 -0.46 0.84 -0.11 0.25 -0.24 0.5 -0.37 0.74 -0.2 0.25 -0.35 0.53 -0.42 0.75 -0.73 2.57 -0.77 4.98 -0.42 7.6l0.03 0.28c0.02 0.14 0.06 0.25 0.11 0.33l0.03 0.09 -0.03 -0.01c1.46 6.34 5.06 13.42 6.57 16.23 0 0.24 0.04 0.47 0.15 0.66 4.83 8.56 11.74 15.75 16.39 24.37 4.71 8.7 6.61 18.81 5.01 28.6m-26.16 11.08c-0.78 -7.13 -2.4 -14.3 -5.94 -20.6 -3.79 -6.77 -9.87 -11.57 -17.02 -14.24 -2.13 -1.04 -6.59 -2.88 -10.21 -2.13 -8.22 -0.49 -16.41 1.14 -24.06 4.15 -3.82 1.5 -7.51 3.32 -11.01 5.46 -1.64 1 -3.22 2.08 -4.77 3.21 -1.52 1.11 -3.37 2.11 -4.65 3.51 -1.62 1.77 -1.75 4.09 0.74 4.93 4.12 1.39 8.92 0.78 13.07 -0.13 8.85 -1.95 17.25 -5.46 24.4 -11.1 2.03 -1.67 3.91 -3.44 5.55 -5.44l5.2 1.02c-7.76 14.24 -25.77 22.23 -41.3 23.34 -7.05 0.51 -15.13 -1.69 -13.52 -10.58 0.82 -4.56 4.36 -8.07 7.84 -10.84 3.78 -3 7.91 -5.61 12.2 -7.82 9.42 -4.85 19.83 -7.49 30.42 -6.84l8.36 1.32c6.81 1.83 13.02 5.2 17.74 10.51 5.43 6.47 8.48 14.33 10.12 22.54 0.86 4.32 1.36 8.72 1.59 13.13 0.11 2.01 0.23 4.14 0.25 6.28 -1.36 1.39 -2.75 2.76 -4.04 4.22 -0.15 0.17 -0.35 0.39 -0.59 0.66q0.045 -0.36 0.06 -0.69c0.26 -4.61 0.07 -9.28 -0.43 -13.87m-40.1 -29.26c-5.96 4.71 -12.78 7.64 -20.07 9.64 -3.81 1.05 -7.8 1.91 -11.78 1.56 -1 -0.09 -1.94 -0.27 -2.92 -0.48 -0.7 -0.15 -1.47 0.06 -1.22 -0.57 0.31 -0.8 3.03 -2.19 3.74 -2.71 10.55 -7.73 23.95 -12.68 37.13 -12.15 -1.43 1.75 -3.12 3.27 -4.88 4.71m-77.75 -46.5c-2.6 3.57 -4.65 7.52 -6.2 11.65 -0.71 1.89 -1.02 4.13 -2.02 5.89 -0.7 1.22 -2.04 2.01 -3.09 0.71 -0.72 -0.89 -0.53 -2.49 -0.33 -3.52 0.83 -4.44 2.94 -9.03 5.02 -13 2.2 -4.2 4.89 -8.15 8.15 -11.61 14.59 -15.48 38.19 -16.59 56.25 -6.74 9.13 4.98 17.25 12.03 23.65 20.22 5.65 7.23 10.14 15.78 10.96 24.99l-4.6 -0.42c-1.74 -9.32 -7.99 -17.27 -14.36 -24 -6.49 -6.84 -14.09 -12.77 -22.87 -16.36 -17.6 -7.17 -38.99 -3.72 -50.56 12.19m99.82 -3.65c-6.96 -8.55 -9.02 -19.18 -6.94 -29.89 1.65 -7.7 4.84 -14.98 9.24 -21.51 2.06 -3.06 4.49 -6.58 7.35 -8.95 1.95 -1.61 3.37 -0.74 4.15 1.47 0.65 1.83 0.82 4.41 0.01 6.22 -0.6 1.35 -1.88 2.33 -2.83 3.44a76.251 76.251 0 0 0 -3.86 4.94c-0.6 0.84 -1.18 1.7 -1.73 2.56 -0.1 0.11 -0.19 0.22 -0.28 0.37s-0.19 0.3 -0.28 0.45q-0.105 0.18 -0.18 0.36c-2.41 3.94 -4.3 8.15 -5.54 12.62 0 0.01 -0.01 0.02 -0.01 0.03 -0.11 0.35 -0.2 0.71 -0.29 1.06 -0.08 0.32 -0.08 0.55 -0.04 0.72 -0.13 0.82 -0.26 1.64 -0.35 2.48 -0.04 0.36 0 0.61 0.08 0.79 0.15 5.42 2.08 9.9 5.39 13.88 -1.04 3.35 -1.91 10.36 5.43 17.13 -3.5 -2.25 -6.63 -4.88 -9.32 -8.17m19.12 -10.82c2.2 -2.73 5.58 -4.3 9.13 -3.49 2.63 0.6 6.26 3.11 6.22 6.15 -0.05 3.18 -4 5.53 -6.69 6.22 -2.53 0.65 -8.56 1.2 -9.5 -2.01 -0.26 -1.79 -0.33 -3.55 0.09 -5.31 0.31 -0.5 0.56 -1.09 0.75 -1.56" stroke-width="1"></path>
      </g>
    </switch>
  </g>
</svg>