<svg xmlns="http://www.w3.org/2000/svg" viewBox="0 0 100 100" id="Podcast-News--Streamline-Ux">
  <desc>
    Podcast News Streamline Illustration: https://streamlinehq.com
  </desc>
  <path stroke="#daedf7" stroke-miterlimit="10" fill="#daedf7" d="M10 51.155a40 40 0 1 0 80 0 40 40 0 1 0 -80 0" stroke-width="1"></path>
  <path fill="#00dfeb" d="M26.637 32.208a23.363 23.363 0 1 0 46.726 0 23.363 23.363 0 1 0 -46.726 0" stroke-width="1"></path>
  <path d="M73.111 28.761a23.586 23.586 0 0 1 -11.9 17.061A22.9 22.9 0 0 1 50 48.687a23.383 23.383 0 0 1 -23.111 -19.926 23.367 23.367 0 0 1 46.222 0" fill="#4aeff7" stroke-width="1"></path>
  <path d="M53.494 33.417a2.868 2.868 0 0 1 -1.313 3.6l-9.568 5.162a2.9 2.9 0 0 1 -3.961 -1.246l-1.246 -2.514a2.871 2.871 0 0 1 0.178 -2.893l3.026 -4.556a2.89 2.89 0 0 0 0.49 -1.6v-3.229a2.868 2.868 0 0 1 3.582 -2.781l3.894 0.957a2.916 2.916 0 0 1 1.98 1.736z" fill="#9ceb60" stroke-width="1"></path>
  <path d="M41.1 29.368v-3.227a2.868 2.868 0 0 1 3.582 -2.781l3.894 0.957a2.916 2.916 0 0 1 1.98 1.736l2.938 7.364a2.868 2.868 0 0 1 -1.313 3.6l-9.568 5.162a2.9 2.9 0 0 1 -3.961 -1.246l-1.246 -2.514a2.871 2.871 0 0 1 0.178 -2.893l3.026 -4.556a2.89 2.89 0 0 0 0.49 -1.602z" stroke-linecap="round" stroke="#45413c" stroke-linejoin="round" fill="none" stroke-width="1"></path>
  <path stroke-linecap="round" stroke="#45413c" stroke-linejoin="round" fill="none" d="M26.637 32.208a23.363 23.363 0 1 0 46.726 0 23.363 23.363 0 1 0 -46.726 0" stroke-width="1"></path>
  <path d="M69.049 45.739a23.37 23.37 0 0 0 -15.49 -36.625L48.687 14.7a2.091 2.091 0 0 0 0.534 3.315l2.633 1.313 5.266 2.626a2.664 2.664 0 0 1 0.979 1.023l3.671 8.3a2.088 2.088 0 0 1 -0.155 1.98l-3.16 4.717a2.1 2.1 0 0 0 -0.133 2.092l3.115 6.208a2.063 2.063 0 0 0 2.514 1.045c5.431 -1.829 4.89 -1.719 5.098 -1.58z" fill="#9ceb60" stroke-width="1"></path>
  <path d="M61.212 45.822a23.586 23.586 0 0 0 11.9 -17.061 23.6 23.6 0 0 1 0.252 3.447 23.263 23.263 0 0 1 -4.314 13.531c-0.208 -0.14 0.333 -0.249 -5.1 1.577a2.063 2.063 0 0 1 -2.514 -1.045z" fill="#6dd627" stroke-width="1"></path>
  <path d="M69.049 45.739a23.37 23.37 0 0 0 -15.49 -36.625L48.687 14.7a2.091 2.091 0 0 0 0.534 3.315l2.633 1.313 5.266 2.626a2.664 2.664 0 0 1 0.979 1.023l3.671 8.3a2.088 2.088 0 0 1 -0.155 1.98l-3.16 4.717a2.1 2.1 0 0 0 -0.133 2.092l3.115 6.208a2.063 2.063 0 0 0 2.514 1.045c5.431 -1.829 4.89 -1.719 5.098 -1.58z" stroke-linecap="round" stroke="#45413c" stroke-linejoin="round" fill="none" stroke-width="1"></path>
  <path fill="#45413c" opacity=".15" d="M35.391 81.097a14.544 2.182 0 1 0 29.088 0 14.544 2.182 0 1 0 -29.088 0" stroke-width="1"></path>
  <path fill="#daedf7" d="M47.925 68.935h3.928v4.899h-3.928z" stroke-width="1"></path>
  <path stroke="#45413c" stroke-linejoin="round" fill="#daedf7" d="M53.162 78.415h-6.545l1.308 -4.581h3.928l1.309 4.581z" stroke-width="1"></path>
  <path fill="#adc4d9" d="M45.962 33.593h7.854s6.545 0 6.545 6.545v15.707s0 6.545 -6.545 6.545h-7.854s-6.545 0 -6.545 -6.545V40.138s0 -6.545 6.545 -6.545" stroke-width="1"></path>
  <path d="M53.816 33.593h-7.854a6.545 6.545 0 0 0 -6.545 6.545v3.926a6.545 6.545 0 0 1 6.545 -6.544h7.854a6.544 6.544 0 0 1 6.545 6.544v-3.926a6.545 6.545 0 0 0 -6.545 -6.545z" fill="#daedf7" stroke-width="1"></path>
  <path d="M52.507 62.39h-5.236v3.927h-1.309a1.309 1.309 0 0 0 0 2.618h7.854a1.309 1.309 0 1 0 0 -2.618h-1.309z" stroke="#45413c" stroke-linejoin="round" fill="#daedf7" stroke-width="1"></path>
  <path stroke="#45413c" stroke-linejoin="round" fill="none" d="M45.962 33.593h7.854s6.545 0 6.545 6.545v15.707s0 6.545 -6.545 6.545h-7.854s-6.545 0 -6.545 -6.545V40.138s0 -6.545 6.545 -6.545" stroke-width="1"></path>
  <path stroke-linecap="round" stroke="#45413c" stroke-linejoin="round" fill="none" d="M39.417 44.064h7.854m13.09 0h-7.854m-13.09 -3.926h7.854m13.09 0h-7.854m-13.09 7.853h4.582m16.362 0h-4.582m-16.362 3.927h4.582m16.362 0h-4.582m-16.362 3.927h4.582m16.362 0h-4.582" stroke-width="1"></path>
  <path stroke="#45413c" stroke-linejoin="round" fill="none" d="M47.271 66.317h5.236" stroke-width="1"></path>
  <path d="M52.507 49.3a2.618 2.618 0 1 0 -5.236 0v17.017h5.236z" stroke="#45413c" stroke-linejoin="round" fill="#daedf7" stroke-width="1"></path>
  <path d="M60.625 81.215H39.148a0.549 0.549 0 0 1 -0.47 -0.829 5.3 5.3 0 0 1 0.6 -0.676c3.891 -4.664 16.982 -5.479 21.784 0.611a0.555 0.555 0 0 1 -0.437 0.894zm-12.7 -12.28h3.928v2.618h-3.928z" fill="#adc4d9" stroke-width="1"></path>
  <path stroke="#45413c" stroke-linejoin="round" fill="none" d="M47.925 68.935h3.928v4.899h-3.928z" stroke-width="1"></path>
  <path d="M59.175 81.215h1.45a0.555 0.555 0 0 0 0.437 -0.894c-4.8 -6.09 -17.893 -5.275 -21.784 -0.611a5.459 5.459 0 0 0 -0.6 0.676 0.549 0.549 0 0 0 0.47 0.829H40.6c4.885 -3.49 13.688 -3.468 18.575 0z" fill="#daedf7" stroke-width="1"></path>
  <path d="M60.625 81.215H39.148a0.549 0.549 0 0 1 -0.47 -0.829 5.459 5.459 0 0 1 0.6 -0.676c3.891 -4.664 16.982 -5.479 21.784 0.611a0.555 0.555 0 0 1 -0.437 0.894z" stroke="#45413c" stroke-linejoin="round" fill="none" stroke-width="1"></path>
</svg>